<svg width="220" height="157" viewBox="0 0 220 157" fill="none" xmlns="http://www.w3.org/2000/svg">
<path fill-rule="evenodd" clip-rule="evenodd" d="M12.6735 155.926H20.7611L30.1876 126.355H30.2999L39.7139 155.931H48.1063L60.5949 113.204H51.0536L43.8851 141.322H43.7627L34.8883 113.199H26.1312L17.2094 140.59H17.0845L10.2607 113.199H0L12.6735 155.926ZM68.0606 134.561C68.0606 148.257 77.7768 157 91.1197 157C104.463 157 114.169 148.259 114.169 134.561C114.169 120.863 104.458 112.12 91.1197 112.12C77.7818 112.12 68.0606 120.861 68.0606 134.569V134.561ZM77.8392 134.561C77.8392 126.59 83.0845 120.791 91.1197 120.791C99.1549 120.791 104.388 126.59 104.388 134.561C104.388 142.533 99.1424 148.322 91.1197 148.322C83.097 148.322 77.8392 142.52 77.8392 134.561ZM125.486 155.926H134.912V138.842H139.551L148.485 155.924H159.78L148.917 137.873C154.944 136.786 158.159 132.149 158.159 126.16C158.159 116.206 150.79 113.199 142.036 113.199H125.486V155.926ZM134.912 121.158H141.067C144.504 121.158 148.37 121.827 148.37 126.11C148.37 130.76 143.897 130.873 140.46 130.873H134.912V121.158ZM220 148.674H208.046V148.559C213.896 145.959 216.538 140.045 216.538 134.019C216.538 121.158 206.405 112.113 193.731 112.113C181.058 112.113 170.912 121.103 170.912 134.019C170.912 147.777 180.756 155.926 194.086 155.926H219.99L220 148.674ZM180.701 134.019C180.701 126.652 186.553 120.783 193.741 120.783C200.93 120.783 206.782 126.645 206.782 134.019C206.782 141.394 200.92 147.233 193.741 147.233C186.563 147.233 180.701 141.372 180.701 134.019Z" fill="#2D2B30"/>
<path fill-rule="evenodd" clip-rule="evenodd" d="M142.956 95.3322L79.8804 32.1734L109.498 2.52313L158.49 51.5729L142.956 95.3322Z" fill="#3F25F2"/>
<path fill-rule="evenodd" clip-rule="evenodd" d="M160.333 46.6953L146.311 32.658L178.933 0L160.333 46.6953Z" fill="#160AB4"/>
<path fill-rule="evenodd" clip-rule="evenodd" d="M77.0084 95.3323L41.0664 0L72.3691 31.3623L106.637 65.6677L77.0084 95.3323Z" fill="#A39EF8"/>
</svg>
