<svg width="752" height="625" viewBox="0 0 752 625" fill="none" xmlns="http://www.w3.org/2000/svg">
<g id="Group 11">
<path id="Ellipse 8" d="M580 483.5C557.61 483.5 535.439 479.09 514.752 470.521C494.066 461.953 475.271 449.394 459.438 433.562C443.606 417.729 431.047 398.934 422.479 378.248C413.91 357.562 409.5 335.39 409.5 313C409.5 290.61 413.91 268.438 422.479 247.752C431.047 227.066 443.606 208.271 459.438 192.438C475.271 176.606 494.066 164.047 514.752 155.479C535.438 146.91 557.61 142.5 580 142.5" stroke="#EFEEFF" stroke-width="3"/>
<path id="Vector 2" d="M393 312H217" stroke="#EFEEFF" stroke-width="2" stroke-linecap="round"/>
<circle id="Ellipse 9" cx="409" cy="313" r="16" fill="#EFEEFF"/>
<circle id="Ellipse 10" cx="429" cy="229" r="16" fill="#EFEEFF"/>
<circle id="Ellipse 12" cx="494" cy="166" r="15.5" fill="#3F25F2" stroke="#3F25F2"/>
<circle id="Ellipse 13" cx="494" cy="459" r="16" fill="#EFEEFF"/>
<circle id="Ellipse 14" cx="580" cy="485" r="16" fill="#EFEEFF"/>
<circle id="Ellipse 15" cx="580" cy="141" r="16" fill="#EFEEFF"/>
<circle id="Ellipse 11" cx="429" cy="397" r="16" fill="#EFEEFF"/>
<path id="Vector 5" d="M494.5 166.5L428.276 126.393C425.152 124.5 421.569 123.5 417.916 123.5H325" stroke="#3F25F2" stroke-width="2" stroke-linecap="round"/>
<path id="Vector 6" d="M493 461L427.848 501.487C424.679 503.456 421.023 504.5 417.292 504.5H321.5" stroke="#EFEEFF" stroke-width="2" stroke-linecap="round"/>
<path id="Vector 7" d="M580.5 485.5L537.178 587.33C534.038 594.709 526.794 599.5 518.774 599.5H413.5M580 141.5L537.66 41.2206C534.533 33.814 527.274 29 519.235 29H412.5" stroke="#EFEEFF" stroke-width="2" stroke-linecap="round"/>
<path id="Vector 8" d="M428.5 230.5L364.204 219.297C363.07 219.099 361.921 219 360.771 219H248" stroke="#EFEEFF" stroke-width="2" stroke-linecap="round"/>
<path id="Vector 9" d="M428.5 397L363.621 407.732C362.542 407.91 361.451 408 360.357 408H246" stroke="#EFEEFF" stroke-width="2" stroke-linecap="round"/>
<g id="Frame 7">
<rect y="285" width="217" height="55" rx="27.5" fill="#EFEEFF"/>
</g>
<g id="Frame 13">
<rect x="20" y="190" width="234" height="55" rx="27.5" fill="#EFEEFF"/>
</g>
<g id="Frame 14">
<rect x="20" y="380" width="234" height="55" rx="27.5" fill="#EFEEFF"/>
</g>
<g id="Frame 15">
<rect x="50" y="475" width="278" height="55" rx="27.5" fill="#EFEEFF"/>
</g>
<g id="Frame 16">
<rect x="50" y="95" width="278" height="55" rx="27.5" fill="#3F25F2"/>
</g>
<g id="Frame 17">
<rect x="90" width="325" height="55" rx="27.5" fill="#EFEEFF"/>
</g>
<g id="Frame 18">
<rect x="90" y="570" width="325" height="55" rx="27.5" fill="#EFEEFF"/>
</g>
</g>
</svg>
