<svg width="40" height="40" viewBox="0 0 40 40" fill="none" xmlns="http://www.w3.org/2000/svg">
<g clip-path="url(#clip0_1_685)">
<path d="M20 26.6667H11.6667V13.3333H20V26.6667ZM8.33333 13.3333H0V26.6667H8.33333V13.3333ZM20 8.33333V3.33333C20 1.49167 18.5083 0 16.6667 0H15C13.1583 0 11.6667 1.49167 11.6667 3.33333V8.33333H20ZM11.6667 31.6667V36.6667C11.6667 38.5083 13.1583 40 15 40H16.6667C18.5083 40 20 38.5083 20 36.6667V31.6667H11.6667ZM0 31.6667V36.6667C0 38.5083 1.49167 40 3.33333 40H5C6.84167 40 8.33333 38.5083 8.33333 36.6667V31.6667H0ZM8.33333 8.33333V3.33333C8.33333 1.49167 6.84167 0 5 0H3.33333C1.49167 0 0 1.49167 0 3.33333V8.33333H8.33333ZM31.87 12.0617L23.9333 14.6017L28.3167 28.2483L36.2533 25.7083L31.87 12.0617ZM30.345 7.3L28.6917 2.31833C28.13 0.565 26.2533 -0.401667 24.5 0.16L22.9133 0.668333C21.16 1.23 20.1933 3.10667 20.755 4.86L22.4083 9.84167L30.345 7.3ZM29.84 33.01L31.2383 37.6817C31.8 39.435 33.6767 40.4017 35.43 39.84L37.0167 39.3317C38.77 38.77 39.7367 36.8933 39.175 35.14L37.7767 30.4683L29.84 33.01Z" fill="#3F25F2"/>
</g>
<defs>
<clipPath id="clip0_1_685">
<rect width="40" height="40" fill="white"/>
</clipPath>
</defs>
</svg>
