<svg width="14" height="7" viewBox="0 0 14 7" fill="none" xmlns="http://www.w3.org/2000/svg">
<path d="M1.74869 0.5C1.94777 0.500177 2.13862 0.580366 2.2793 0.722938L6.11966 4.61017C6.23587 4.72783 6.37384 4.82116 6.52569 4.88484C6.67754 4.94852 6.84029 4.98129 7.00466 4.98129C7.16903 4.98129 7.33178 4.94852 7.48363 4.88484C7.63548 4.82116 7.77346 4.72783 7.88966 4.61017L11.7275 0.728005C11.8691 0.589562 12.0588 0.512956 12.2557 0.514688C12.4525 0.51642 12.6409 0.59635 12.7801 0.737263C12.9193 0.878176 12.9983 1.0688 13 1.26807C13.0017 1.46735 12.926 1.65933 12.7892 1.80267L8.95437 5.68483C8.43766 6.20683 7.73745 6.5 7.00741 6.5C6.27738 6.5 5.57717 6.20683 5.06045 5.68483L1.22009 1.7976C1.11517 1.69146 1.04365 1.55624 1.01457 1.409C0.98549 1.26176 1.00015 1.10911 1.0567 0.970292C1.11324 0.831478 1.20915 0.712728 1.33231 0.629029C1.45546 0.54533 1.60035 0.500431 1.74869 0.5Z" fill="#2D2B30" stroke="#2D2B30"/>
</svg>
