<svg width="40" height="40" viewBox="0 0 40 40" fill="none" xmlns="http://www.w3.org/2000/svg">
<g clip-path="url(#clip0_1_609)">
<path d="M37.9433 7.60988C37.3343 7.35619 36.6636 7.28951 36.0165 7.41832C35.3695 7.54714 34.7754 7.86562 34.31 8.33321L30 12.6432L22.3567 4.99988C21.7316 4.37498 20.8839 4.02393 20 4.02393C19.1161 4.02393 18.2684 4.37498 17.6433 4.99988L10 12.6432L5.69 8.33321C5.22383 7.86718 4.62995 7.54983 3.98344 7.42127C3.33693 7.29271 2.66682 7.35872 2.05782 7.61095C1.44882 7.86319 0.928276 8.29032 0.561995 8.83835C0.195714 9.38639 0.000140748 10.0307 0 10.6899L0 28.3332C0.00264643 30.5425 0.88147 32.6606 2.4437 34.2229C4.00593 35.7851 6.12401 36.6639 8.33333 36.6665H31.6667C33.876 36.6639 35.9941 35.7851 37.5563 34.2229C39.1185 32.6606 39.9974 30.5425 40 28.3332V10.6899C40.0002 10.0307 39.8049 9.38619 39.4388 8.83796C39.0727 8.28973 38.5523 7.86236 37.9433 7.60988Z" fill="#3F25F2"/>
</g>
<defs>
<clipPath id="clip0_1_609">
<rect width="40" height="40" fill="white"/>
</clipPath>
</defs>
</svg>
