<svg width="20" height="20" viewBox="0 0 20 20" fill="none" xmlns="http://www.w3.org/2000/svg">
<g clip-path="url(#clip0_75_843)">
<path d="M15.8333 1.66668H8.29664C7.66182 1.66472 7.03506 1.80883 6.46485 2.08786C5.89464 2.3669 5.39627 2.77337 5.0083 3.27584L0.174968 9.48834C0.0611724 9.63463 -0.000610352 9.81467 -0.000610352 10C-0.000610352 10.1853 0.0611724 10.3654 0.174968 10.5117L5.0083 16.7242C5.39627 17.2266 5.89464 17.6331 6.46485 17.9122C7.03506 18.1912 7.66182 18.3353 8.29664 18.3333H15.8333C16.938 18.332 17.997 17.8926 18.7781 17.1115C19.5592 16.3304 19.9986 15.2713 20 14.1667V5.83334C19.9986 4.72868 19.5592 3.66964 18.7781 2.88853C17.997 2.10741 16.938 1.668 15.8333 1.66668ZM14.7558 11.9108C14.8354 11.9877 14.8989 12.0797 14.9426 12.1813C14.9862 12.283 15.0092 12.3924 15.0102 12.503C15.0111 12.6137 14.9901 12.7234 14.9482 12.8258C14.9063 12.9282 14.8444 13.0213 14.7661 13.0995C14.6879 13.1777 14.5948 13.2396 14.4924 13.2815C14.39 13.3234 14.2803 13.3445 14.1696 13.3436C14.059 13.3426 13.9496 13.3196 13.848 13.2759C13.7463 13.2323 13.6543 13.1688 13.5775 13.0892L11.6666 11.1783L9.7558 13.0892C9.59863 13.241 9.38813 13.325 9.16963 13.3231C8.95114 13.3212 8.74213 13.2335 8.58762 13.079C8.43311 12.9245 8.34547 12.7155 8.34357 12.497C8.34167 12.2785 8.42567 12.068 8.57747 11.9108L10.4883 10L8.57747 8.08918C8.42567 7.93201 8.34167 7.72151 8.34357 7.50301C8.34547 7.28451 8.43311 7.0755 8.58762 6.92099C8.74213 6.76649 8.95114 6.67885 9.16963 6.67695C9.38813 6.67505 9.59863 6.75904 9.7558 6.91084L11.6666 8.82168L13.5775 6.91084C13.7346 6.75904 13.9451 6.67505 14.1636 6.67695C14.3821 6.67885 14.5911 6.76649 14.7457 6.92099C14.9002 7.0755 14.9878 7.28451 14.9897 7.50301C14.9916 7.72151 14.9076 7.93201 14.7558 8.08918L12.845 10L14.7558 11.9108Z" fill="#3F25F2"/>
</g>
<defs>
<clipPath id="clip0_75_843">
<rect width="20" height="20" fill="white"/>
</clipPath>
</defs>
</svg>
