<svg width="40" height="40" viewBox="0 0 40 40" fill="none" xmlns="http://www.w3.org/2000/svg">
<g clip-path="url(#clip0_1_630)">
<path d="M7.50001 11.6666C6.73363 11.6688 5.97444 11.5189 5.26638 11.2257C4.55832 10.9324 3.91546 10.5017 3.37501 9.9583L0.833339 7.69997C0.338268 7.25794 0.0390689 6.63735 0.00156158 5.97473C-0.0170101 5.64663 0.0292242 5.31808 0.137625 5.00785C0.246025 4.69762 0.414469 4.41177 0.633339 4.16664C0.852209 3.9215 1.11722 3.72188 1.41324 3.57916C1.70925 3.43645 2.03048 3.35343 2.35858 3.33486C3.02121 3.29735 3.6716 3.52461 4.16667 3.96664L6.80667 6.3233C6.89263 6.42489 6.99851 6.50777 7.11776 6.56682C7.23701 6.62587 7.36711 6.65984 7.50001 6.66664C7.72059 6.66659 7.93216 6.57909 8.08834 6.4233L14.11 0.689971C14.5935 0.252465 15.2288 0.0211765 15.8804 0.0454334C16.532 0.0696902 17.1484 0.347572 17.598 0.819815C18.0476 1.29206 18.295 1.92128 18.2872 2.5733C18.2795 3.22531 18.0174 3.84851 17.5567 4.30997L11.58 9.99997C11.043 10.5325 10.4062 10.9539 9.70608 11.2399C9.00596 11.5259 8.25628 11.6709 7.50001 11.6666ZM40 5.8333C40 5.17026 39.7366 4.53438 39.2678 4.06554C38.7989 3.5967 38.163 3.3333 37.5 3.3333H24.1667C23.5036 3.3333 22.8677 3.5967 22.3989 4.06554C21.9301 4.53438 21.6667 5.17026 21.6667 5.8333C21.6667 6.49635 21.9301 7.13223 22.3989 7.60107C22.8677 8.06991 23.5036 8.3333 24.1667 8.3333H37.5C38.163 8.3333 38.7989 8.06991 39.2678 7.60107C39.7366 7.13223 40 6.49635 40 5.8333ZM11.58 23.3333L17.5567 17.6433C18.0174 17.1818 18.2795 16.5586 18.2872 15.9066C18.295 15.2546 18.0476 14.6254 17.598 14.1531C17.1484 13.6809 16.532 13.403 15.8804 13.3788C15.2288 13.3545 14.5935 13.5858 14.11 14.0233L8.08834 19.7566C7.93207 19.9129 7.72014 20.0006 7.49917 20.0006C7.2782 20.0006 7.06628 19.9129 6.91001 19.7566L4.26834 17.1133C3.79935 16.6443 3.16326 16.3808 2.50001 16.3808C1.83675 16.3808 1.20066 16.6443 0.731672 17.1133C0.262681 17.5823 -0.000795441 18.2184 -0.000795441 18.8816C-0.000795441 19.5449 0.262681 20.181 0.731672 20.65L3.37501 23.2916C4.46161 24.3776 5.93273 24.9911 7.46894 24.9989C9.00515 25.0067 10.4824 24.4082 11.58 23.3333ZM40 19.1666C40 18.5036 39.7366 17.8677 39.2678 17.3989C38.7989 16.93 38.163 16.6666 37.5 16.6666H24.1667C23.5036 16.6666 22.8677 16.93 22.3989 17.3989C21.9301 17.8677 21.6667 18.5036 21.6667 19.1666C21.6667 19.8297 21.9301 20.4656 22.3989 20.9344C22.8677 21.4032 23.5036 21.6666 24.1667 21.6666H37.5C38.163 21.6666 38.7989 21.4032 39.2678 20.9344C39.7366 20.4656 40 19.8297 40 19.1666ZM11.58 36.6666L17.5567 30.9766C18.0174 30.5152 18.2795 29.892 18.2872 29.24C18.295 28.5879 18.0476 27.9587 17.598 27.4865C17.1484 27.0142 16.532 26.7364 15.8804 26.7121C15.2288 26.6878 14.5935 26.9191 14.11 27.3566L8.08834 33.09C7.93216 33.2458 7.72059 33.3333 7.50001 33.3333C7.36711 33.3265 7.23701 33.2925 7.11776 33.2335C6.99851 33.1744 6.89263 33.0916 6.80667 32.99L4.16667 30.6333C3.6716 30.1913 3.02121 29.964 2.35858 30.0015C1.69596 30.039 1.07537 30.3382 0.633339 30.8333C0.191311 31.3284 -0.0359457 31.9788 0.00156158 32.6414C0.0390689 33.304 0.338268 33.9246 0.833339 34.3666L3.37167 36.625C4.45842 37.7119 5.93025 38.3261 7.46727 38.3339C9.00429 38.3417 10.4823 37.7425 11.58 36.6666ZM40 32.5C40 31.8369 39.7366 31.201 39.2678 30.7322C38.7989 30.2634 38.163 30 37.5 30H24.1667C23.5036 30 22.8677 30.2634 22.3989 30.7322C21.9301 31.201 21.6667 31.8369 21.6667 32.5C21.6667 33.163 21.9301 33.7989 22.3989 34.2677C22.8677 34.7366 23.5036 35 24.1667 35H37.5C38.163 35 38.7989 34.7366 39.2678 34.2677C39.7366 33.7989 40 33.163 40 32.5Z" fill="#3F25F2"/>
</g>
<defs>
<clipPath id="clip0_1_630">
<rect width="40" height="40" fill="white"/>
</clipPath>
</defs>
</svg>
