<svg width="20" height="20" viewBox="0 0 20 20" fill="none" xmlns="http://www.w3.org/2000/svg">
<g clip-path="url(#clip0_75_849)">
<path d="M18.6933 9.20501C18.4116 8.50001 18.0066 7.84168 17.5 7.26584V4.17001C17.5 3.65501 17.2683 3.17668 16.8633 2.85667C16.465 2.54251 15.9558 2.42917 15.4625 2.54501C13.9416 2.90751 12.8008 3.76917 12.19 5.00001H7.7208C5.56997 5.00001 3.63914 5.96501 2.37164 7.47418C1.37164 7.32834 1.49247 5.83168 2.49914 5.83334C3.5883 5.82917 3.58914 4.17084 2.49914 4.16668C-0.155031 4.15834 -0.941698 7.83834 1.44247 8.92418C-0.0233647 11.9408 1.25164 15.8258 4.1658 17.4342V17.5C4.16747 20.2925 8.1158 20.9317 9.0233 18.3333H10.9758C11.8833 20.9333 15.8316 20.2908 15.8333 17.5V17.4233C17.1333 16.6708 18.1425 15.5067 18.6933 14.1283C19.3775 13.9825 20 13.4217 20 12.5V10.8333C20 9.91168 19.3766 9.35084 18.6933 9.20501ZM15 10.8333C13.91 10.8283 13.91 9.17168 15 9.16668C16.09 9.17168 16.09 10.8283 15 10.8333ZM5.0433 3.76001C4.57497 -0.899159 11.4933 -1.34999 11.6666 3.33334H7.72164C6.78747 3.33334 5.8883 3.48751 5.0433 3.76001Z" fill="#3F25F2"/>
</g>
<defs>
<clipPath id="clip0_75_849">
<rect width="20" height="20" fill="white"/>
</clipPath>
</defs>
</svg>
