<svg width="54" height="54" viewBox="0 0 54 54" fill="none" xmlns="http://www.w3.org/2000/svg">
<circle cx="27" cy="27" r="25.5" transform="matrix(-1 0 0 1 54 0)" stroke="#3F25F2" stroke-width="3"/>
<path d="M22.5856 15.6306C22.586 16.0615 22.7575 16.4745 23.0623 16.779L31.3736 25.0903C31.6252 25.3418 31.8248 25.6404 31.9609 25.969C32.0971 26.2977 32.1671 26.6499 32.1671 27.0056C32.1671 27.3613 32.0971 27.7136 31.9609 28.0422C31.8248 28.3709 31.6252 28.6695 31.3736 28.921L23.0731 37.2215C22.7771 37.5279 22.6133 37.9384 22.617 38.3645C22.6207 38.7905 22.7916 39.1981 23.0929 39.4994C23.3942 39.8007 23.8018 39.9716 24.2279 39.9753C24.6539 39.979 25.0644 39.8152 25.3709 39.5192L33.6714 31.2252C34.7875 30.1069 35.4143 28.5915 35.4143 27.0116C35.4143 25.4316 34.7875 23.9162 33.6714 22.798L25.3601 14.4812C25.1328 14.2538 24.8432 14.0989 24.5279 14.0361C24.2126 13.9734 23.8857 14.0056 23.5887 14.1286C23.2917 14.2517 23.0378 14.4601 22.8593 14.7274C22.6807 14.9948 22.5855 15.3091 22.5856 15.6306Z" fill="#3F25F2"/>
</svg>
