<svg width="40" height="40" viewBox="0 0 40 40" fill="none" xmlns="http://www.w3.org/2000/svg">
<g clip-path="url(#clip0_1_689)">
<path d="M21.4717 25.3601L8.24666 38.5851C7.80208 39.0519 7.26861 39.425 6.67765 39.6826C6.0867 39.9401 5.45019 40.0769 4.80559 40.0847C4.161 40.0926 3.52135 39.9714 2.92428 39.7284C2.32722 39.4853 1.78481 39.1253 1.32898 38.6694C0.873151 38.2136 0.513111 37.6712 0.270053 37.0741C0.0269946 36.4771 -0.0941704 35.8374 -0.0863106 35.1928C-0.0784509 34.5482 0.0582747 33.9117 0.315819 33.3208C0.573363 32.7298 0.946521 32.1963 1.41333 31.7517L14.6383 18.5267L21.4717 25.3601ZM28.5 11.5001C27.5799 10.6207 26.3561 10.1299 25.0833 10.1299C23.8106 10.1299 22.5868 10.6207 21.6667 11.5001L17 16.1667L23.8333 23.0001L28.5 18.3334C29.4058 17.4271 29.9146 16.1981 29.9146 14.9167C29.9146 13.6354 29.4058 12.4064 28.5 11.5001ZM8.105 8.57508L10.6883 9.31175L11.425 11.8951C11.5437 12.3096 11.7941 12.6742 12.1384 12.9338C12.4827 13.1933 12.9022 13.3337 13.3333 13.3337C13.7645 13.3337 14.184 13.1933 14.5283 12.9338C14.8726 12.6742 15.123 12.3096 15.2417 11.8951L15.9783 9.31175L18.5617 8.57508C18.9762 8.45641 19.3408 8.20598 19.6004 7.86168C19.8599 7.51738 20.0003 7.09793 20.0003 6.66675C20.0003 6.23557 19.8599 5.81611 19.6004 5.47181C19.3408 5.12751 18.9762 4.87709 18.5617 4.75841L15.9783 4.02175L15.2417 1.43841C15.123 1.02389 14.8726 0.659277 14.5283 0.399714C14.184 0.140152 13.7645 -0.000244141 13.3333 -0.000244141C12.9022 -0.000244141 12.4827 0.140152 12.1384 0.399714C11.7941 0.659277 11.5437 1.02389 11.425 1.43841L10.6883 4.02175L8.105 4.75841C7.69047 4.87709 7.32586 5.12751 7.0663 5.47181C6.80674 5.81611 6.66634 6.23557 6.66634 6.66675C6.66634 7.09793 6.80674 7.51738 7.0663 7.86168C7.32586 8.20598 7.69047 8.45641 8.105 8.57508ZM28.105 28.5751L30.6883 29.3117L31.425 31.8951C31.5437 32.3096 31.7941 32.6742 32.1384 32.9338C32.4827 33.1933 32.9022 33.3337 33.3333 33.3337C33.7645 33.3337 34.184 33.1933 34.5283 32.9338C34.8726 32.6742 35.123 32.3096 35.2417 31.8951L35.9783 29.3117L38.5617 28.5751C38.9762 28.4564 39.3408 28.206 39.6004 27.8617C39.8599 27.5174 40.0003 27.0979 40.0003 26.6667C40.0003 26.2356 39.8599 25.8161 39.6004 25.4718C39.3408 25.1275 38.9762 24.8771 38.5617 24.7584L35.9783 24.0217L35.2417 21.4384C35.123 21.0239 34.8726 20.6593 34.5283 20.3997C34.184 20.1402 33.7645 19.9998 33.3333 19.9998C32.9022 19.9998 32.4827 20.1402 32.1384 20.3997C31.7941 20.6593 31.5437 21.0239 31.425 21.4384L30.6883 24.0217L28.105 24.7584C27.6905 24.8771 27.3259 25.1275 27.0663 25.4718C26.8067 25.8161 26.6663 26.2356 26.6663 26.6667C26.6663 27.0979 26.8067 27.5174 27.0663 27.8617C27.3259 28.206 27.6905 28.4564 28.105 28.5751ZM29.5933 7.50008L31.8517 8.14508L32.5 10.4067C32.6055 10.7671 32.825 11.0835 33.1254 11.3086C33.4259 11.5337 33.7912 11.6553 34.1667 11.6553C34.5421 11.6553 34.9074 11.5337 35.2079 11.3086C35.5084 11.0835 35.7278 10.7671 35.8333 10.4067L36.4783 8.14841L38.74 7.50008C39.1003 7.39456 39.4167 7.17513 39.6418 6.87465C39.8669 6.57418 39.9886 6.20885 39.9886 5.83342C39.9886 5.45798 39.8669 5.09265 39.6418 4.79218C39.4167 4.4917 39.1003 4.27227 38.74 4.16675L36.4817 3.52175L35.8333 1.26008C35.7278 0.899776 35.5084 0.583367 35.2079 0.358269C34.9074 0.133171 34.5421 0.011506 34.1667 0.011506C33.7912 0.011506 33.4259 0.133171 33.1254 0.358269C32.825 0.583367 32.6055 0.899776 32.5 1.26008L31.855 3.51841L29.5933 4.16675C29.233 4.27227 28.9166 4.4917 28.6915 4.79218C28.4664 5.09265 28.3448 5.45798 28.3448 5.83342C28.3448 6.20885 28.4664 6.57418 28.6915 6.87465C28.9166 7.17513 29.233 7.39456 29.5933 7.50008Z" fill="#3F25F2"/>
</g>
<defs>
<clipPath id="clip0_1_689">
<rect width="40" height="40" fill="white"/>
</clipPath>
</defs>
</svg>
