<svg width="40" height="40" viewBox="0 0 40 40" fill="none" xmlns="http://www.w3.org/2000/svg">
<g clip-path="url(#clip0_1_681)">
<path d="M30.9684 3.56658L20.5267 0.0849131C20.1848 -0.0289554 19.8153 -0.0289554 19.4734 0.0849131L9.03171 3.56658C7.37155 4.11805 5.9274 5.17867 4.90445 6.59776C3.8815 8.01685 3.33177 9.72223 3.33338 11.4716V19.9999C3.33338 32.6049 18.6667 39.5666 19.3234 39.8566C19.5364 39.9512 19.7669 40.0001 20 40.0001C20.2332 40.0001 20.4637 39.9512 20.6767 39.8566C21.3334 39.5666 36.6667 32.6049 36.6667 19.9999V11.4716C36.6683 9.72223 36.1186 8.01685 35.0956 6.59776C34.0727 5.17867 32.6285 4.11805 30.9684 3.56658ZM27.8634 16.1949L20.7434 23.3149C20.452 23.6082 20.1053 23.8407 19.7233 23.999C19.3414 24.1572 18.9318 24.2379 18.5184 24.2366H18.4634C18.0415 24.2301 17.6254 24.1382 17.2401 23.9663C16.8548 23.7944 16.5083 23.5462 16.2217 23.2366L12.3784 19.2366C12.2119 19.0822 12.0788 18.8953 11.9871 18.6876C11.8955 18.4799 11.8472 18.2556 11.8453 18.0286C11.8435 17.8015 11.888 17.5765 11.9762 17.3673C12.0644 17.1581 12.1945 16.9691 12.3583 16.8119C12.5222 16.6547 12.7165 16.5327 12.9292 16.4533C13.1419 16.3739 13.3686 16.3388 13.5954 16.3502C13.8221 16.3616 14.0442 16.4191 14.2479 16.5194C14.4516 16.6197 14.6327 16.7605 14.78 16.9332L18.52 20.8332L25.5 13.8332C25.8144 13.5297 26.2354 13.3617 26.6724 13.3655C27.1094 13.3693 27.5274 13.5445 27.8364 13.8535C28.1454 14.1626 28.3207 14.5806 28.3245 15.0176C28.3283 15.4546 28.1603 15.8756 27.8567 16.1899L27.8634 16.1949Z" fill="#3F25F2"/>
</g>
<defs>
<clipPath id="clip0_1_681">
<rect width="40" height="40" fill="white"/>
</clipPath>
</defs>
</svg>
