<svg width="40" height="40" viewBox="0 0 40 40" fill="none" xmlns="http://www.w3.org/2000/svg">
<g clip-path="url(#clip0_1_687)">
<path d="M32.5001 40.0001C32.1669 40.0003 31.8414 39.9007 31.5654 39.7142C31.2894 39.5276 31.0757 39.2626 30.9517 38.9534L29.5451 35.4317L26.0184 33.9467C25.7159 33.8131 25.4596 33.5931 25.2817 33.3144C25.1038 33.0356 25.0122 32.7105 25.0184 32.3798C25.0246 32.0492 25.1284 31.7278 25.3167 31.4559C25.505 31.184 25.7694 30.9738 26.0767 30.8517L29.5567 29.5334L30.9517 26.0467C31.08 25.742 31.2954 25.482 31.5708 25.2991C31.8462 25.1162 32.1695 25.0187 32.5001 25.0187C32.8307 25.0187 33.1539 25.1162 33.4293 25.2991C33.7048 25.482 33.9201 25.742 34.0484 26.0467L35.4501 29.5467L38.9501 30.9484C39.2554 31.0761 39.5161 31.2912 39.6995 31.5667C39.8829 31.8422 39.9807 32.1658 39.9807 32.4967C39.9807 32.8277 39.8829 33.1512 39.6995 33.4267C39.5161 33.7022 39.2554 33.9174 38.9501 34.0451L35.4501 35.4467L34.0484 38.9467C33.9255 39.2572 33.7122 39.5236 33.4362 39.7114C33.1601 39.8992 32.834 39.9998 32.5001 40.0001ZM16.6667 35.0001C15.9467 35.0087 15.2432 34.784 14.6615 34.3595C14.0799 33.9349 13.6514 33.3335 13.4401 32.6451L10.7501 24.2334L2.31173 21.4101C1.63067 21.1824 1.03959 20.7442 0.623875 20.1587C0.208157 19.5731 -0.0106826 18.8706 -0.00103709 18.1526C0.00860842 17.4346 0.24624 16.7382 0.677535 16.164C1.10883 15.5899 1.71146 15.1677 2.3984 14.9584L10.7701 12.4017L13.5901 3.9784C13.7997 3.28652 14.2334 2.68396 14.823 2.2655C15.4125 1.84703 16.1244 1.6364 16.8467 1.66674C17.5669 1.66771 18.2674 1.90189 18.8433 2.33423C19.4193 2.76657 19.8397 3.37382 20.0417 4.06507L22.5951 12.4234L30.9784 15.1067C31.6546 15.3335 32.2424 15.767 32.6589 16.346C33.0754 16.925 33.2995 17.6202 33.2995 18.3334C33.2995 19.0466 33.0754 19.7418 32.6589 20.3208C32.2424 20.8998 31.6546 21.3333 30.9784 21.5601L22.5801 24.2467L19.8934 32.6451C19.6821 33.3335 19.2536 33.9349 18.6719 34.3595C18.0903 34.784 17.3868 35.0087 16.6667 35.0001ZM34.1667 11.6667C33.7952 11.6667 33.4343 11.5426 33.1414 11.314C32.8485 11.0854 32.6404 10.7655 32.5501 10.4051L31.9551 8.02174L29.5667 7.38007C29.2078 7.28362 28.8913 7.06995 28.6678 6.77301C28.4442 6.47608 28.3263 6.11292 28.3328 5.74128C28.3393 5.36964 28.4698 5.01084 28.7037 4.72192C28.9375 4.433 29.2613 4.23054 29.6234 4.14674L31.9567 3.60507L32.5501 1.26174C32.6404 0.901357 32.8485 0.581489 33.1414 0.352934C33.4343 0.12438 33.7952 0.000244141 34.1667 0.000244141C34.5383 0.000244141 34.8991 0.12438 35.192 0.352934C35.4849 0.581489 35.6931 0.901357 35.7834 1.26174L36.3734 3.62507L38.7367 4.21674C39.0971 4.30705 39.417 4.5152 39.6455 4.8081C39.8741 5.10101 39.9982 5.46188 39.9982 5.8334C39.9982 6.20493 39.8741 6.5658 39.6455 6.8587C39.417 7.15161 39.0971 7.35975 38.7367 7.45007L36.3734 8.04174L35.7834 10.4051C35.6931 10.7655 35.485 11.0854 35.1921 11.314C34.8992 11.5426 34.5383 11.6667 34.1667 11.6667Z" fill="#3F25F2"/>
</g>
<defs>
<clipPath id="clip0_1_687">
<rect width="40" height="40" fill="white"/>
</clipPath>
</defs>
</svg>
