<svg width="30" height="30" viewBox="0 0 30 30" fill="none" xmlns="http://www.w3.org/2000/svg">
<g clip-path="url(#clip0_38_1705)">
<path d="M28.4663 9.65123C27.8801 8.97574 27.1557 8.43408 26.342 8.06293C25.5283 7.69177 24.6443 7.49979 23.75 7.49998H18.7638L19.1838 4.94873C19.3324 4.05031 19.1531 3.1284 18.6786 2.35116C18.2041 1.57391 17.466 0.993125 16.599 0.714723C15.732 0.436322 14.7937 0.47886 13.9555 0.834578C13.1172 1.1903 12.4347 1.83549 12.0325 2.65248L10 6.77123V26.25H22.875C24.3793 26.2438 25.8315 25.6979 26.9672 24.7114C28.103 23.725 28.847 22.3636 29.0637 20.875L29.945 14.625C30.0696 13.7384 30.002 12.8354 29.7469 11.9772C29.4917 11.119 29.055 10.3257 28.4663 9.65123Z" fill="#3F25F2"/>
<path d="M0 13.75V20C0.00198482 21.657 0.661102 23.2456 1.83277 24.4172C3.00445 25.5889 4.59301 26.248 6.25 26.25H7.5V7.5H6.25C4.59301 7.50198 3.00445 8.1611 1.83277 9.33277C0.661102 10.5044 0.00198482 12.093 0 13.75Z" fill="#3F25F2"/>
</g>
<defs>
<clipPath id="clip0_38_1705">
<rect width="30" height="30" fill="white"/>
</clipPath>
</defs>
</svg>
